<?xml version="1.0" encoding="utf-8"?>
<!-- Generator: Adobe Illustrator 22.0.1, SVG Export Plug-In . SVG Version: 6.00 Build 0)  -->
<svg version="1.1" xmlns="http://www.w3.org/2000/svg" xmlns:xlink="http://www.w3.org/1999/xlink" x="0px" y="0px"
	 viewBox="0 0 960 560" style="enable-background:new 0 0 960 560;" xml:space="preserve">
<style type="text/css">
	.st0{fill:#CE3835;}
	.st1{fill:#D14F54;}
	.st2{opacity:0.9;fill:#FFFFFF;}
	.st3{fill:#C0272B;}
	.st4{opacity:0.9;}
	.st5{fill:#FFFFFF;}
	.st6{fill:#000200;}
	.st7{display:none;fill:#1C1C1C;}
	.st8{display:none;fill:#CE3937;}
	.st9{fill:url(#SVGID_1_);}
	.st10{fill:url(#XMLID_77_);}
	.st11{fill:url(#XMLID_78_);}
	.st12{fill:url(#XMLID_79_);}
	.st13{fill:url(#XMLID_80_);}
	.st14{fill:url(#XMLID_85_);}
	.st15{fill:url(#XMLID_92_);}
	.st16{fill:url(#XMLID_148_);}
	.st17{fill:url(#XMLID_149_);}
	.st18{fill:#282828;}
	.st19{opacity:0.75;fill:#FFFFFF;}
	.st20{fill:#0D0E0E;}
	.st21{fill:url(#XMLID_150_);}
	.st22{fill:url(#XMLID_151_);}
	.st23{fill:url(#XMLID_152_);}
	.st24{fill:url(#XMLID_153_);}
	.st25{fill:url(#XMLID_154_);}
	.st26{fill:url(#SVGID_2_);}
	.st27{fill:url(#SVGID_3_);}
	.st28{display:none;opacity:0.9;fill:#FFFFFF;}
	.st29{fill:#E5E5E5;}
	.st30{display:none;opacity:0.9;}
	.st31{display:inline;fill:#FFFFFF;}
</style>
<g id="Красно_черный">
</g>
<g id="Красно_белый">
	<rect id="фон_1_" x="0" y="0" class="st7" width="960" height="560"/>
	<g id="Крыша_1_">
		<g>
			<path class="st0" d="M242.9,298.5l-40.9,47.4c-0.9,1-0.2,2.6,1.2,2.6h41.3c1.1,0,2-0.9,2-2v-46.7
				C246.4,298,244.1,297.1,242.9,298.5z M284.8,346l-31.5-46.3c-1.1-1.6-3.7-0.8-3.7,1.1v45.6c0,1.1,0.9,2,2,2h31.8
				C284.7,348.5,285.5,347.1,284.8,346z"/>
		</g>
	</g>
	<g id="крыша_с_треуголь_1_">
		<polygon id="XMLID_67_" class="st0" points="214.1,277.4 227.6,261.5 214.1,239.8 		"/>
		<path id="XMLID_66_" class="st0" d="M250.9,231.1l-14.9,3.5v17l15.9-18.9C252.5,232,251.8,230.9,250.9,231.1z"/>
		<polygon id="XMLID_65_" class="st0" points="231,235.8 219.2,238.5 231,257.5 		"/>
		<path id="XMLID_64_" class="st0" d="M70.8,313.1l-37.7,39.7c-0.6,0.7-0.1,1.7,0.8,1.7l19.2-1L70.8,313.1z"/>
		<polygon id="XMLID_63_" class="st0" points="88.7,310.3 71,350.5 72.3,352.2 84.2,351.6 95.5,324.8 95.5,351.1 97.4,351 
			97.4,325.6 110.6,350.3 97.4,325.6 		"/>
		<path id="XMLID_62_" class="st0" d="M178.7,247.9l-34.3,38.6l-4.1-0.3l33.1-37.1L120,261.6c-0.2,0-0.4,0.1-0.5,0.3l-20.3,21.3
			l21.1,67l33.4-1.7c0.3,0,0.5-0.1,0.7-0.4l54.8-64.9v-42.5L178.7,247.9z"/>
	</g>
	<g id="каркас_1_">
		<polygon id="XMLID_61_" class="st1" points="84.4,282.1 120.3,350.2 142.7,286.4 		"/>
		<polygon id="XMLID_60_" class="st2" points="53.1,353.5 72.3,352.6 62.8,339.9 85.2,290.2 110.2,338.3 110.6,350.7 120.3,350.2 
			84.4,282.1 		"/>
		<polygon id="XMLID_59_" class="st1" points="72.3,352.6 62.8,353.1 62.8,339.9 		"/>
	</g>
	<g id="окно_1_">
		<polygon id="XMLID_58_" class="st3" points="110.2,338.3 85.2,290.2 62.8,339.9 71,350.8 88.7,310.7 96,323.5 110.6,350.3 		"/>
		<g id="XMLID_55_" class="st4">
			<polygon id="XMLID_57_" class="st5" points="84.2,352 95.5,351.4 95.5,325.2 			"/>
			<polygon id="XMLID_56_" class="st5" points="110.8,350.7 97.4,326 97.4,351.3 			"/>
		</g>
	</g>
	<g id="wi-fi_1_">
		<path id="XMLID_54_" class="st0" d="M286.9,193.8c-8.4-6.9-19.3-9.8-30.6-8.1c-0.5,0.1-0.9,0.5-0.9,1.1l0.5,8.6
			c0,0.2,0.1,0.5,0.3,0.6c0.2,0.1,0.4,0.2,0.7,0.2c8.6-1.2,16.8,0.9,23.1,6.1c6.4,5.2,10.1,12.8,10.6,21.5c0,0.2,0.1,0.5,0.3,0.6
			c0.2,0.1,0.4,0.2,0.7,0.2l8.5-1.2c0.2,0,0.5-0.2,0.6-0.4c0.2-0.2,0.2-0.4,0.2-0.7C300.3,210.8,295.3,200.7,286.9,193.8z"/>
		<path id="XMLID_53_" class="st0" d="M274.9,208c-5.2-4.3-12-6.1-19.1-5.1c-0.2,0-0.5,0.2-0.6,0.4c-0.2,0.2-0.2,0.4-0.2,0.7
			l0.5,8.6c0,0.2,0.1,0.5,0.3,0.6c0.2,0.1,0.4,0.2,0.7,0.2c4.3-0.6,8.4,0.5,11.6,3.1c3.2,2.6,5.1,6.4,5.3,10.8
			c0,0.2,0.1,0.5,0.3,0.6c0.2,0.1,0.4,0.2,0.7,0.2l8.5-1.2c0.5-0.1,0.9-0.5,0.9-1.1C283.2,218.6,280.1,212.3,274.9,208z"/>
	</g>
	<g id="Слово_1_">
		<path id="XMLID_51_" class="st5" d="M344.5,339.5c0,0.4-0.1,0.7-0.1,0.7s-0.1,0.6-0.4,1c-0.2,0.4-0.4,0.7-0.8,1
			c-0.8,0.6-1.3,0.6-1.7,0.7s-1.3,0.1-1.3,0.1c-3,0-4.5-1.5-4.5-4.5V235.6c0-2.5,2-4.5,4.5-4.5h12.5c3.7,0,6.6,1.6,8.6,4.9
			l47.4,77.5h0.2c-0.1-2-0.2-4-0.2-6v-71.9c0-2.5,2-4.5,4.5-4.5h8.6c2.5,0,4.5,2,4.5,4.5v102.9c0,2.5-2,4.5-4.5,4.5h-9.1
			c-3.7,0-6.6-1.6-8.6-4.9c0,0-59.3-95.9-59.3-96c0,0-0.1-0.1-0.1-0.1c-0.1,0-0.1,0.1-0.1,0.1c0,0,0,0,0,0.1s0,21.8,0,23.7v72.2l0,1
			"/>
		<path id="XMLID_49_" class="st5" d="M461.1,343c-3,0-4.5-1.5-4.5-4.5V235.6c0-3,1.5-4.5,4.5-4.5h8.6c3,0,4.5,1.5,4.5,4.5v102.9
			c0,3-1.5,4.5-4.5,4.5H461.1z"/>
		<path id="XMLID_47_" class="st5" d="M509.1,343c-3,0-4.5-1.5-4.5-4.5V235.6c0-3,1.5-4.5,4.5-4.5h8.6c3,0,4.5,1.5,4.5,4.5v40.6
			c0,1.9,0.2,13.6,0.1,16.6c0,0,0,0.1,0,0.1c0,0,0.1,0.1,0.1,0.1c0.1,0,0.1,0,0.1,0l46.9-51.8l6.6-7.3c0,0,0.5-0.6,1.1-1
			c0.5-0.4,0.6-0.5,1.4-0.9c0.8-0.4,1.3-0.5,1.6-0.6c0.3,0,0.2,0,0.3,0c0.1,0,0.2,0,0.3,0s0.1,0,0.1,0c4.9,0.1,5.7,2,2.3,5.9
			l-36,40.1l39.2,60c2.6,3.9,1.7,5.9-2.6,5.9H574c-2.2,0-4.1-1.2-5.7-3.7l-32.5-50.2l-13.5,15.7v33.7c0,3-1.5,4.5-4.5,4.5H509.1z"/>
		<path id="XMLID_44_" class="st5" d="M602.1,287.1c0-16,4.1-29.6,12.4-40.8c8.3-11.2,20.8-16.8,37.4-16.8
			c16.7,0,29.1,5.6,37.4,16.8c8.3,11.2,12.4,24.8,12.4,40.8c0,16-4.1,29.6-12.4,40.8c-8.3,11.2-20.8,16.8-37.4,16.8
			c-16.7,0-29.1-5.6-37.4-16.8C606.2,316.7,602.1,303.1,602.1,287.1z M620.7,287.1c0,14.3,2.8,25.4,8.4,33.1
			c5.6,7.7,13.2,11.6,22.9,11.6c9.7,0,17.3-3.9,22.9-11.6c5.6-7.7,8.4-18.8,8.4-33.1c0-14.3-2.8-25.4-8.4-33.1
			c-5.6-7.7-13.2-11.6-22.9-11.6c-9.7,0-17.3,3.9-22.9,11.6C623.5,261.7,620.7,272.7,620.7,287.1z"/>
		<path id="XMLID_41_" class="st5" d="M730.3,343c-3,0-4.5-1.5-4.5-4.5V235.6c0-3,1.5-4.5,4.5-4.5H768c15.5,0,26.4,2.7,32.7,8.1
			c6.3,5.4,9.5,12.9,9.5,22.5c0,8.9-2.7,16.1-8,21.5c-5.3,5.4-13.8,8.8-25.3,10.1v0.2c4.7,2.7,8.3,5.3,10.8,8c2.5,2.7,4.5,5.2,6,7.4
			l17.6,28.1c2.5,3.9,1.8,5.9-2.1,5.9h-9.7c-2,0-3.8-1.2-5.3-3.7l-17.4-27.7c-3.4-5.4-6.7-9.3-10-11.7c-3.3-2.4-7.2-3.6-11.7-3.6
			h-11.6v42.2c0,3-1.5,4.5-4.5,4.5H730.3z M743.4,283.4h21.1c7.9,0,14.4-1.6,19.5-4.8c5.1-3.2,7.6-8.8,7.6-16.8
			c0-5.8-2-10.2-5.9-13.1c-3.9-2.9-10.7-4.3-20.3-4.3h-22V283.4z"/>
		<g id="буква_О_с_треуголь_1_">
			<path id="XMLID_39_" class="st5" d="M925.4,255.5c-1.6-3.3-3.5-6.3-5.6-9.3c-2.9-3.9-6.2-7.1-10.1-9.6l-2.3,17.3L925.4,255.5z"/>
			<path id="XMLID_38_" class="st5" d="M926.1,260.3l-18-1.6c2.2,4.4,3.8,9.7,4.7,15.8L926.1,260.3z"/>
			<g id="XMLID_32_">
				<g>
					<path class="st5" d="M913.4,281.3c0.1,1.8,0.2,3.7,0.2,5.7c0,4-0.2,7.7-0.7,11.2c0,0.4-0.1,0.8-0.1,1.2l0.7-0.3l16.8-7.2
						L913.4,281.3z"/>
				</g>
			</g>
			<path id="XMLID_31_" class="st5" d="M932.2,287.4c0-0.1,0-0.3,0-0.4c0-8.2-1.1-15.8-3.3-22.7l-12.5,13.2L932.2,287.4z"/>
			<path id="XMLID_30_" class="st5" d="M915.9,303.2l9.3,15.6c3.4-6.8,5.5-14.2,6.4-22.4L915.9,303.2z"/>
			<path id="XMLID_29_" class="st0" d="M905.2,320.2c-5.6,7.7-13.2,11.6-22.9,11.6c-9.7,0-17.3-3.9-22.9-11.6
				c-5.6-7.7-8.4-18.8-8.4-33.1c0-14.3,2.8-25.4,8.4-33.1c5.6-7.7,13.2-11.6,22.9-11.6c8.4,0,15.3,2.9,20.6,8.8l2.3-17.1
				c-6.5-3.1-14.1-4.7-22.9-4.7c-16.7,0-29.1,5.6-37.4,16.8c-8.3,11.2-12.4,24.8-12.4,40.8s4.1,29.6,12.4,40.8
				c8.3,11.2,20.8,16.8,37.4,16.8c16.7,0,29.1-5.6,37.4-16.8c1-1.4,2-2.8,2.9-4.2l-10.9-18.3C910.3,311.2,908.1,316.1,905.2,320.2z"
				/>
		</g>
	</g>
	<path id="XMLID_28_" class="st5" d="M930.9,348.8H333.1h-2.8c-0.6,0-1.1,0.5-1.1,1.1v3.6c0,0.3,0.1,0.5,0.3,0.7c0,0,0,0,0,0
		c0.2,0.2,0.5,0.3,0.7,0.3h5.7h595c0.6,0,1.1-0.5,1.1-1.1v-3.6C932,349.2,931.5,348.8,930.9,348.8z"/>
	<g id="Черта_1_">
		<g>
			<path class="st0" d="M335.9,352.9l-72-106.6c0,0,0,0,0,0l-7.9-11.7c-0.4-0.6-1.2-0.6-1.6-0.1l-2.6,3.2c-0.3,0.3-0.3,0.9,0,1.2
				l73.8,109.1c0,0,0.1,0.1,0.1,0.1l4,5.9c0.2,0.3,0.5,0.4,0.8,0.4l3.2,0l1.6,0C335.9,354.5,336.4,353.6,335.9,352.9z"/>
		</g>
	</g>
</g>
<g id="Черный">
</g>
<g id="Белый">
</g>
</svg>
